<svg version="1.1" xmlns="http://www.w3.org/2000/svg" xmlns:xlink="http://www.w3.org/1999/xlink" width="137.36269" height="84.67017" viewBox="0,0,137.36269,84.67017"><defs><linearGradient x1="169.7258" y1="135.099" x2="169.7258" y2="219.9693" gradientUnits="userSpaceOnUse" id="color-1"><stop offset="0" stop-color="#ffffff"/><stop offset="1" stop-color="#cccccc"/></linearGradient><radialGradient cx="250.08977" cy="173.55729" r="80.0417" gradientUnits="userSpaceOnUse" id="color-2"><stop offset="0" stop-color="#ffffff"/><stop offset="1" stop-color="#cccccc"/></radialGradient></defs><g transform="translate(-168.25484,-135.29909)"><g data-paper-data="{&quot;isPaintingLayer&quot;:true}" fill="none" fill-rule="nonzero" stroke="none" stroke-width="none" stroke-linecap="round" stroke-linejoin="miter" stroke-miterlimit="10" stroke-dasharray="" stroke-dashoffset="0" font-family="none" font-weight="none" font-size="none" text-anchor="none" style="mix-blend-mode: normal"><path d="M239.6173,137.7607c11.9314,-2.9624 16.24085,-3.96242 28.04255,1.08218c4.1469,2.0143 10.28704,4.02839 13.13264,8.32579c1.5688,2.3677 9.42431,6.32752 11.42531,8.66052c8.0064,8.0625 13.3481,14.60561 13.3995,27.33151c0.0537,13.078 -9.2541,26.5067 -19.3433,32.0947c-14.1275,7.8088 -31.2092,3.8163 -46.7736,2.7004c-14.5445,-1.0425 -28.6743,-6.1273 -43.046,-9.0107c-7.128,-1.1118 -15.1858,1.1492 -21.4938,-2.9804c-3.8397,-2.5133 -7.58973,-12.34245 -6.52093,-17.59915c1.5583,-6.1092 12.78223,-2.72065 14.52273,-8.87845c1.7791,-6.3033 -6.1222,-13.7836 -3.9717,-20.5166c1.6284,-4.5705 7.9854,-4.2143 12.4991,-4.9906c7.7355,-1.3183 15.9615,2.3788 23.4797,0c9.0542,-2.9042 15.4615,-13.9388 24.6478,-16.2192z" data-paper-data="{&quot;origPos&quot;:null}" id="ID0.20794556522741914" fill="url(#color-1)" stroke-width="1.28185"/><path d="M240.22507,140.75229c5.1579,-1.8207 10.8492,-2.0078 14.7291,1.2996c3.2744,2.3705 1.14,8.576 2.6283,12.476c1.1466,3.0112 2.7859,6.8294 5.366,9.0322c2.4049,1.5855 5.469,1.1813 8.4871,1.4945c4.8108,0.4614 10.34,-3.0085 14.5101,-0.4549c6.8784,4.0262 16.7234,9.821 16.1528,18.7141c-0.7972,12.411 -13.3811,19.1897 -19.6571,29.2407c-1.3382,2.5823 3.6774,0.6524 1.5233,0.8473c-8.6097,0.7759 -15.9119,2.5849 -24.0277,2.2067c-9.9907,-0.733 -19.5783,-2.1612 -30.0059,-5.5232c-7.5114,-2.5082 -13.2234,-10.5748 -20.9713,-12.4761c-7.8377,-1.9246 -16.8384,3.5596 -24.0376,0.4549c-3.3335,-1.4503 -9.14087,-7.58782 -7.21347,-11.11222c2.6775,-4.8033 14.42037,-1.08828 17.72647,-5.84738c2.1059,-3.1606 -2.3139,-7.5532 -1.9712,-11.5013c-0.4489,-4.6318 -1.9591,-11.708 1.6427,-13.6457c6.6692,-3.5947 14.9635,2.2301 22.0116,0c8.4882,-2.7226 14.6788,-12.2109 23.1068,-15.2052z" data-paper-data="{&quot;origPos&quot;:null}" id="ID0.20794556522741914" fill="url(#color-2)" stroke-width="1.2017"/></g></g></svg>